:version	1.10
:name	0101
:units
	mass	kg
	length	m
	angle	deg
:documentation
	fps:30
:root
	axis	XYZ
	order	TX	TY	TZ	RX	RY	RZ
	position	0.00	0.00	0.00
	orientation	0.00	0.00	0.00
:bonedata
	begin
		id	1
		name	Head
		direction	-18.5	116.2	-38.8
		length	123.9
		axis	0.0	0.0	0.0	XYZ
		dof	rx	ry	rz
		limits	(-inf	inf)
			(-inf	inf)
			(-inf	inf)
	end
	begin
		id	2
		name	Neck
		direction	-1.6	89.5	-15.3
		length	90.8
		axis	0.0	0.0	0.0	XYZ
		dof	rx	ry	rz
		limits	(-inf	inf)
			(-inf	inf)
			(-inf	inf)
	end
	begin
		id	3
		name	LeftCollar
		direction	-5.0	276.0	-47.2
		length	280.1
		axis	0.0	0.0	0.0	XYZ
		dof	rx	ry	rz
		limits	(-inf	inf)
			(-inf	inf)
			(-inf	inf)
	end
	begin
		id	4
		name	Torso
		direction	4.0	199.4	8.5
		length	199.7
		axis	0.0	0.0	0.0	XYZ
		dof	rx	ry	rz
		limits	(-inf	inf)
			(-inf	inf)
			(-inf	inf)
	end
	begin
		id	5
		name	LeftShoulder
		direction	170.7	-14.1	-44.7
		length	177.0
		axis	0.0	0.0	0.0	XYZ
		dof	rx	ry	rz
		limits	(-inf	inf)
			(-inf	inf)
			(-inf	inf)
	end
	begin
		id	6
		name	RightShoulder
		direction	-174.2	6.3	52.4
		length	182.0
		axis	0.0	0.0	0.0	XYZ
		dof	rx	ry	rz
		limits	(-inf	inf)
			(-inf	inf)
			(-inf	inf)
	end
	begin
		id	7
		name	LeftElbow
		direction	55.3	-271.7	26.6
		length	278.5
		axis	0.0	0.0	0.0	XYZ
		dof	rx	ry	rz
		limits	(-inf	inf)
			(-inf	inf)
			(-inf	inf)
	end
	begin
		id	8
		name	RightElbow
		direction	-37.0	-268.0	66.2
		length	278.5
		axis	0.0	0.0	0.0	XYZ
		dof	rx	ry	rz
		limits	(-inf	inf)
			(-inf	inf)
			(-inf	inf)
	end
	begin
		id	9
		name	LeftWrist
		direction	69.1	-260.5	-128.7
		length	298.7
		axis	0.0	0.0	0.0	XYZ
		dof	rx	ry	rz
		limits	(-inf	inf)
			(-inf	inf)
			(-inf	inf)
	end
	begin
		id	10
		name	RightWrist
		direction	-79.9	-277.4	-76.9
		length	298.7
		axis	0.0	0.0	0.0	XYZ
		dof	rx	ry	rz
		limits	(-inf	inf)
			(-inf	inf)
			(-inf	inf)
	end
	begin
		id	11
		name	LeftHand
		direction	13.8	-52.1	-25.7
		length	59.7
		axis	0.0	0.0	0.0	XYZ
		dof	rx	ry	rz
		limits	(-inf	inf)
			(-inf	inf)
			(-inf	inf)
	end
	begin
		id	12
		name	RightHand
		direction	-16.0	-55.5	-15.4
		length	59.7
		axis	0.0	0.0	0.0	XYZ
		dof	rx	ry	rz
		limits	(-inf	inf)
			(-inf	inf)
			(-inf	inf)
	end
	begin
		id	13
		name	LeftHip
		direction	117.3	-70.1	12.8
		length	137.3
		axis	0.0	0.0	0.0	XYZ
		dof	rx	ry	rz
		limits	(-inf	inf)
			(-inf	inf)
			(-inf	inf)
	end
	begin
		id	14
		name	RightHip
		direction	-108.5	-76.7	41.0
		length	139.0
		axis	0.0	0.0	0.0	XYZ
		dof	rx	ry	rz
		limits	(-inf	inf)
			(-inf	inf)
			(-inf	inf)
	end
	begin
		id	15
		name	LeftKnee
		direction	-0.2	-428.3	-95.5
		length	438.9
		axis	0.0	0.0	0.0	XYZ
		dof	rx	ry	rz
		limits	(-inf	inf)
			(-inf	inf)
			(-inf	inf)
	end
	begin
		id	16
		name	RightKnee
		direction	16.9	-434.8	-56.9
		length	438.9
		axis	0.0	0.0	0.0	XYZ
		dof	rx	ry	rz
		limits	(-inf	inf)
			(-inf	inf)
			(-inf	inf)
	end
	begin
		id	17
		name	LeftAnkle
		direction	51.1	-389.3	75.6
		length	399.8
		axis	0.0	0.0	0.0	XYZ
		dof	rx	ry	rz
		limits	(-inf	inf)
			(-inf	inf)
			(-inf	inf)
	end
	begin
		id	18
		name	RightAnkle
		direction	-36.9	-388.8	85.6
		length	399.8
		axis	0.0	0.0	0.0	XYZ
		dof	rx	ry	rz
		limits	(-inf	inf)
			(-inf	inf)
			(-inf	inf)
	end
:hierarchy
	begin
		Neck	Head
		LeftCollar	Neck	LeftShoulder	RightShoulder
		Torso	LeftCollar
		root	Torso	LeftHip	RightHip
		LeftShoulder	LeftElbow
		RightShoulder	RightElbow
		LeftElbow	LeftWrist
		RightElbow	RightWrist
		LeftWrist	LeftHand
		RightWrist	RightHand
		LeftHip	LeftKnee
		RightHip	RightKnee
		LeftKnee	LeftAnkle
		RightKnee	RightAnkle
	end

:FULLY-SPECIFIED
:DEGREES
47
Head	-11.24	14.75	-1.08
Neck	-11.24	14.75	-1.08
LeftCollar	-11.24	14.75	-1.08
Torso	-11.24	14.75	-1.08
root	151.66	27.94	2743.17	-2.08	6.85	-0.72
LeftShoulder	13.17	-9.90	-79.79
RightShoulder	19.44	35.04	-15.23
LeftElbow	14.35	25.14	-71.28
RightElbow	17.34	23.85	-19.49
LeftWrist	14.67	27.58	-70.58
RightWrist	17.44	24.56	-19.25
LeftHand	14.67	27.58	-70.58
RightHand	17.44	24.56	-19.25
LeftHip	7.08	35.63	2.36
RightHip	3.97	-32.01	1.06
LeftKnee	-10.56	35.63	2.36
RightKnee	-13.81	-32.01	1.06
LeftAnkle	-10.56	35.63	2.36
RightAnkle	-13.81	-32.01	1.06
48
Head	-11.55	14.44	-1.80
Neck	-11.55	14.44	-1.80
LeftCollar	-11.55	14.44	-1.80
Torso	-11.55	14.44	-1.80
root	147.68	31.33	2745.15	-3.61	6.98	0.04
LeftShoulder	12.48	-10.30	-79.74
RightShoulder	20.44	35.68	-14.48
LeftElbow	13.66	25.84	-71.43
RightElbow	18.10	24.09	-19.14
LeftWrist	13.98	28.37	-70.73
RightWrist	18.18	24.61	-18.95
LeftHand	13.98	28.37	-70.73
RightHand	18.18	24.61	-18.95
LeftHip	5.85	34.58	2.25
RightHip	2.11	-32.12	1.27
LeftKnee	-8.55	34.58	2.25
RightKnee	-10.62	-32.12	1.27
LeftAnkle	-8.55	34.58	2.25
RightAnkle	-10.62	-32.12	1.27
49
Head	-11.78	14.42	-2.07
Neck	-11.78	14.42	-2.07
LeftCollar	-11.78	14.42	-2.07
Torso	-11.78	14.42	-2.07
root	144.79	32.62	2746.19	-2.72	6.98	0.22
LeftShoulder	11.38	-10.51	-79.53
RightShoulder	21.16	35.73	-12.67
LeftElbow	12.44	25.84	-71.94
RightElbow	18.74	24.21	-17.49
LeftWrist	12.73	28.36	-71.31
RightWrist	18.81	24.66	-17.32
LeftHand	12.73	28.36	-71.31
RightHand	18.81	24.66	-17.32
LeftHip	5.52	34.10	2.23
RightHip	2.36	-32.39	1.37
LeftKnee	-8.25	34.10	2.23
RightKnee	-10.76	-32.39	1.37
LeftAnkle	-8.25	34.10	2.23
RightAnkle	-10.76	-32.39	1.37
50
Head	-11.97	14.55	-2.25
Neck	-11.97	14.55	-2.25
LeftCollar	-11.97	14.55	-2.25
Torso	-11.97	14.55	-2.25
root	143.39	33.73	2747.24	-2.04	6.73	-0.03
LeftShoulder	10.32	-10.69	-79.35
RightShoulder	21.70	35.67	-9.87
LeftElbow	11.26	25.69	-72.49
RightElbow	19.27	24.51	-14.68
LeftWrist	11.52	28.18	-71.92
RightWrist	19.34	24.93	-14.52
LeftHand	11.52	28.18	-71.92
RightHand	19.34	24.93	-14.52
LeftHip	5.85	33.16	2.26
RightHip	3.85	-32.19	1.52
LeftKnee	-8.71	33.16	2.26
RightKnee	-12.54	-32.19	1.52
LeftAnkle	-8.71	33.16	2.26
RightAnkle	-12.54	-32.19	1.52
51
Head	-12.21	14.77	-2.43
Neck	-12.21	14.77	-2.43
LeftCollar	-12.21	14.77	-2.43
Torso	-12.21	14.77	-2.43
root	142.66	34.74	2748.32	-1.94	7.09	0.15
LeftShoulder	9.51	-10.93	-79.03
RightShoulder	21.98	36.01	-7.27
LeftElbow	10.30	24.86	-72.84
RightElbow	19.44	24.54	-12.28
LeftWrist	10.51	27.26	-72.35
RightWrist	19.49	24.84	-12.16
LeftHand	10.51	27.26	-72.35
RightHand	19.49	24.84	-12.16
LeftHip	6.05	32.99	2.10
RightHip	3.78	-31.49	1.67
LeftKnee	-9.06	32.99	2.10
RightKnee	-13.35	-31.49	1.67
LeftAnkle	-9.06	32.99	2.10
RightAnkle	-13.35	-31.49	1.67
52
Head	-12.21	14.77	-2.43
Neck	-12.21	14.77	-2.43
LeftCollar	-12.21	14.77	-2.43
Torso	-12.21	14.77	-2.43
root	142.66	34.74	2748.32	-1.94	7.09	0.15
LeftShoulder	9.51	-10.93	-79.03
RightShoulder	21.98	36.01	-7.27
LeftElbow	10.30	24.86	-72.84
RightElbow	19.44	24.54	-12.28
LeftWrist	10.51	27.26	-72.35
RightWrist	19.49	24.84	-12.16
LeftHand	10.51	27.26	-72.35
RightHand	19.49	24.84	-12.16
LeftHip	6.05	32.99	2.10
RightHip	3.78	-31.49	1.67
LeftKnee	-9.06	32.99	2.10
RightKnee	-13.35	-31.49	1.67
LeftAnkle	-9.06	32.99	2.10
RightAnkle	-13.35	-31.49	1.67
53
Head	-12.44	15.00	-2.60
Neck	-12.44	15.00	-2.60
LeftCollar	-12.44	15.00	-2.60
Torso	-12.44	15.00	-2.60
root	141.94	35.57	2749.33	-1.82	7.14	0.22
LeftShoulder	8.78	-11.16	-78.78
RightShoulder	24.11	36.94	-2.15
LeftElbow	9.45	24.21	-73.16
RightElbow	20.67	22.31	-9.05
LeftWrist	9.63	26.52	-72.73
RightWrist	20.64	22.13	-9.12
LeftHand	9.63	26.52	-72.73
RightHand	20.64	22.13	-9.12
LeftHip	6.53	32.18	2.00
RightHip	3.42	-31.23	1.83
LeftKnee	-9.80	32.18	2.00
RightKnee	-13.49	-31.23	1.83
LeftAnkle	-9.80	32.18	2.00
RightAnkle	-13.49	-31.23	1.83
54
Head	-12.66	14.82	-2.66
Neck	-12.66	14.82	-2.66
LeftCollar	-12.66	14.82	-2.66
Torso	-12.66	14.82	-2.66
root	141.83	35.44	2751.18	-2.35	6.57	0.41
LeftShoulder	7.81	-11.54	-78.52
RightShoulder	28.93	38.65	8.00
LeftElbow	8.35	23.45	-73.61
RightElbow	23.78	20.46	-2.29
LeftWrist	8.50	25.64	-73.25
RightWrist	23.67	19.78	-2.60
LeftHand	8.50	25.64	-73.25
RightHand	23.67	19.78	-2.60
LeftHip	5.52	31.50	1.67
RightHip	1.93	-31.92	2.13
LeftKnee	-8.12	31.50	1.67
RightKnee	-14.13	-31.92	2.13
LeftAnkle	-8.12	31.50	1.67
RightAnkle	-14.13	-31.92	2.13
55
Head	-12.61	14.69	-2.64
Neck	-12.61	14.69	-2.64
LeftCollar	-12.61	14.69	-2.64
Torso	-12.61	14.69	-2.64
root	141.91	34.15	2751.68	-1.98	6.72	0.71
LeftShoulder	7.57	-11.58	-78.36
RightShoulder	31.16	38.43	12.91
LeftElbow	8.09	23.38	-73.60
RightElbow	25.59	20.21	1.71
LeftWrist	8.23	25.52	-73.27
RightWrist	25.48	19.55	1.38
LeftHand	8.23	25.52	-73.27
RightHand	25.48	19.55	1.38
LeftHip	6.21	31.47	1.55
RightHip	2.35	-32.20	2.04
LeftKnee	-8.91	31.47	1.55
RightKnee	-13.85	-32.20	2.04
LeftAnkle	-8.91	31.47	1.55
RightAnkle	-13.85	-32.20	2.04
56
Head	-12.43	14.62	-2.58
Neck	-12.43	14.62	-2.58
LeftCollar	-12.43	14.62	-2.58
Torso	-12.43	14.62	-2.58
root	141.98	32.41	2752.12	-2.11	6.47	0.72
LeftShoulder	7.54	-11.54	-78.28
RightShoulder	32.07	37.90	17.28
LeftElbow	8.04	23.23	-73.57
RightElbow	26.58	20.55	6.19
LeftWrist	8.18	25.31	-73.25
RightWrist	26.49	20.04	5.92
LeftHand	8.18	25.31	-73.25
RightHand	26.49	20.04	5.92
LeftHip	6.50	31.07	1.37
RightHip	2.98	-32.94	1.95
LeftKnee	-9.53	31.07	1.37
RightKnee	-13.37	-32.94	1.95
LeftAnkle	-9.53	31.07	1.37
RightAnkle	-13.37	-32.94	1.95
57
Head	-12.23	14.58	-2.46
Neck	-12.23	14.58	-2.46
LeftCollar	-12.23	14.58	-2.46
Torso	-12.23	14.58	-2.46
root	142.07	31.05	2752.24	-2.37	6.74	0.73
LeftShoulder	7.47	-11.42	-78.20
RightShoulder	34.28	37.32	22.41
LeftElbow	7.96	22.96	-73.59
RightElbow	28.57	20.48	10.75
LeftWrist	8.09	24.99	-73.27
RightWrist	28.47	20.01	10.47
LeftHand	8.09	24.99	-73.27
RightHand	28.47	20.01	10.47
LeftHip	6.92	31.27	1.33
RightHip	2.71	-32.85	2.23
LeftKnee	-10.15	31.27	1.33
RightKnee	-14.02	-32.85	2.23
LeftAnkle	-10.15	31.27	1.33
RightAnkle	-14.02	-32.85	2.23
58
Head	-12.23	14.58	-2.46
Neck	-12.23	14.58	-2.46
LeftCollar	-12.23	14.58	-2.46
Torso	-12.23	14.58	-2.46
root	142.07	31.05	2752.24	-2.37	6.74	0.73
LeftShoulder	7.47	-11.42	-78.20
RightShoulder	34.28	37.32	22.41
LeftElbow	7.96	22.96	-73.59
RightElbow	28.57	20.48	10.75
LeftWrist	8.09	24.99	-73.27
RightWrist	28.47	20.01	10.47
LeftHand	8.09	24.99	-73.27
RightHand	28.47	20.01	10.47
LeftHip	6.92	31.27	1.33
RightHip	2.71	-32.85	2.23
LeftKnee	-10.15	31.27	1.33
RightKnee	-14.02	-32.85	2.23
LeftAnkle	-10.15	31.27	1.33
RightAnkle	-14.02	-32.85	2.23
59
Head	-11.88	14.48	-2.22
Neck	-11.88	14.48	-2.22
LeftCollar	-11.88	14.48	-2.22
Torso	-11.88	14.48	-2.22
root	142.25	25.21	2752.12	-3.61	6.53	0.57
LeftShoulder	7.41	-11.37	-78.00
RightShoulder	30.10	36.27	34.38
LeftElbow	7.90	23.04	-73.42
RightElbow	24.77	15.13	22.31
LeftWrist	8.02	25.05	-73.11
RightWrist	24.67	14.30	21.92
LeftHand	8.02	25.05	-73.11
RightHand	24.67	14.30	21.92
LeftHip	6.16	32.07	1.49
RightHip	2.09	-34.10	2.16
LeftKnee	-8.92	32.07	1.49
RightKnee	-13.18	-34.10	2.16
LeftAnkle	-8.92	32.07	1.49
RightAnkle	-13.18	-34.10	2.16
60
Head	-11.88	14.48	-2.22
Neck	-11.88	14.48	-2.22
LeftCollar	-11.88	14.48	-2.22
Torso	-11.88	14.48	-2.22
root	142.25	25.21	2752.12	-3.61	6.53	0.57
LeftShoulder	7.41	-11.37	-78.00
RightShoulder	30.10	36.27	34.38
LeftElbow	7.90	23.04	-73.42
RightElbow	24.77	15.13	22.31
LeftWrist	8.02	25.05	-73.11
RightWrist	24.67	14.30	21.92
LeftHand	8.02	25.05	-73.11
RightHand	24.67	14.30	21.92
LeftHip	6.16	32.07	1.49
RightHip	2.09	-34.10	2.16
LeftKnee	-8.92	32.07	1.49
RightKnee	-13.18	-34.10	2.16
LeftAnkle	-8.92	32.07	1.49
RightAnkle	-13.18	-34.10	2.16
